<svg width="17" height="18" viewBox="0 0 17 18" fill="none" xmlns="http://www.w3.org/2000/svg">
<g clip-path="url(#clip0_435_2894)">
<path d="M13.4583 0.5H3.54167C1.58596 0.5 0 2.08596 0 4.04167V13.9583C0 15.914 1.58596 17.5 3.54167 17.5H13.4583C15.4148 17.5 17 15.914 17 13.9583V4.04167C17 2.08596 15.4148 0.5 13.4583 0.5ZM5.66667 13.9583H3.54167V6.16667H5.66667V13.9583ZM4.60417 5.2685C3.91992 5.2685 3.36458 4.70892 3.36458 4.019C3.36458 3.32908 3.91992 2.7695 4.60417 2.7695C5.28842 2.7695 5.84375 3.32908 5.84375 4.019C5.84375 4.70892 5.28912 5.2685 4.60417 5.2685ZM14.1667 13.9583H12.0417V9.98883C12.0417 7.60317 9.20833 7.78379 9.20833 9.98883V13.9583H7.08333V6.16667H9.20833V7.41687C10.1972 5.58512 14.1667 5.44983 14.1667 9.17071V13.9583Z" fill="#3A25FF"/>
</g>
<defs>
<clipPath id="clip0_435_2894">
<rect width="17" height="17" fill="white" transform="translate(0 0.5)"/>
</clipPath>
</defs>
</svg>
